<svg width="32" height="32" viewBox="0 0 32 32" fill="none" xmlns="http://www.w3.org/2000/svg">
<g clip-path="url(#clip0_1446_20902)">
<path fill-rule="evenodd" clip-rule="evenodd" d="M5.75535 9.99998H2C0.895431 9.99998 0 10.8954 0 12V20C0 21.1045 0.895431 22 2 22H6L16.3243 31.4639C16.9657 32.0518 18 31.5968 18 30.7267V22.2446L5.75535 9.99998ZM18 13.7593V1.27321C18 0.403107 16.9657 -0.0518926 16.3243 0.536059L10.2995 6.05881L18 13.7593Z" fill="#1EDC1A"/>
<path fill-rule="evenodd" clip-rule="evenodd" d="M22.4804 26.725C22.19 26.9165 22 27.2357 22 27.5923V27.6384C22 28.2836 22.6036 28.7608 23.214 28.5518C23.4822 28.4599 23.7464 28.3596 24.0064 28.251L22.4804 26.725ZM28.9076 24.667C30.8363 22.399 32 19.4604 32 16.25C32 10.5452 28.3254 5.69871 23.214 3.94821C22.6036 3.73916 22 4.21638 22 4.86159V4.90766C22 5.35513 22.2993 5.74373 22.7204 5.89505C26.9647 7.42017 30 11.4806 30 16.25C30 18.908 29.0573 21.3458 27.4879 23.2473L28.9076 24.667ZM26.0658 21.8251C27.277 20.2921 28 18.3555 28 16.25C28 12.8331 26.0958 9.86084 23.2906 8.33668C22.6842 8.00718 22 8.48609 22 9.17624V9.29163C22 9.67767 22.2256 10.0239 22.5579 10.2204C24.6182 11.4388 26 13.683 26 16.25C26 17.8028 25.4945 19.2374 24.639 20.3983L26.0658 21.8251ZM23.3447 19.104C23.3483 19.0973 23.3518 19.0905 23.3553 19.0836C23.7676 18.27 24 17.3497 24 16.3751C24 15.4005 23.7676 14.4802 23.3553 13.6665C22.9645 12.8954 22 13.2755 22 14.1399V16.3751V17.7593L23.3447 19.104Z" fill="#1EDC1A"/>
<path fill-rule="evenodd" clip-rule="evenodd" d="M0.292893 0.292893C0.683417 -0.0976311 1.31658 -0.0976311 1.70711 0.292893L31.7071 30.2929C32.0976 30.6834 32.0976 31.3166 31.7071 31.7071C31.3166 32.0976 30.6834 32.0976 30.2929 31.7071L0.292893 1.70711C-0.0976311 1.31658 -0.0976311 0.683417 0.292893 0.292893Z" fill="#1EDC1A"/>
</g>
<defs>
<clipPath id="clip0_1446_20902">
<rect width="32" height="32" fill="white"/>
</clipPath>
</defs>
</svg>
